<svg xmlns="http://www.w3.org/2000/svg" width="33.484" height="32.442" viewBox="0 0 33.484 32.442">
  <path id="Subtraction_4" data-name="Subtraction 4" d="M8.053,32.442h0A16.888,16.888,0,0,1-3.1,27.386,15.887,15.887,0,0,1-2.768,4.755,16.9,16.9,0,0,1,9.07,0,16.9,16.9,0,0,1,20.909,4.755a15.886,15.886,0,0,1,4.9,11.481A15.694,15.694,0,0,1,24.3,22.98a16.223,16.223,0,0,1-4.08,5.365c-.324.151-.634.292-.923.419-.8.353-1.511.642-2.105.857a17.146,17.146,0,0,1-5.576,1.212,4.082,4.082,0,0,1-3.7-1.667,10.494,10.494,0,0,1-1.015-2.049,10.255,10.255,0,0,1-.167-6.55,18.921,18.921,0,0,1,4.144-6.951,10.048,10.048,0,0,1,2.54-2.392l.117-.042-.63-3.641c-.663.712-1.247,1.335-1.657,1.77-.376.4-.639.681-.743.8a8.256,8.256,0,0,1-2.785,2.084,3.489,3.489,0,0,1-1.137.185H6.519a4.714,4.714,0,0,1-1.186-.149,3.673,3.673,0,0,1-1.093-.472,1.558,1.558,0,0,1-.65-.765,1.425,1.425,0,0,1,.021-.979,3.32,3.32,0,0,1,.609-1.032A5.385,5.385,0,0,1,6.442,7.428a7.09,7.09,0,0,1,2.384-.47,4.73,4.73,0,0,1,.507.027c.045-.016.063-.055.053-.114a2.119,2.119,0,0,0-.8-.966A5.859,5.859,0,0,0,7.227,5.19a6.054,6.054,0,0,0-1.516-.357c-.142-.014-.281-.021-.41-.021a2.561,2.561,0,0,0-.867.134c-1.189.431-2.026,1.649-2.488,3.62a8.079,8.079,0,0,0,.069,4.6A3.9,3.9,0,0,0,6.053,15.83c.077,0,.157,0,.236,0a3.707,3.707,0,0,0-.473.86,8.949,8.949,0,0,0-.435,1.431,28.809,28.809,0,0,0-.635,5.809,13.925,13.925,0,0,0,.745,4.76,9.023,9.023,0,0,0,1.754,2.98,8.018,8.018,0,0,0,.8.774Z" transform="translate(7.672 0)" fill="#7D94BB"/>
</svg>
