<svg xmlns="http://www.w3.org/2000/svg" width="33.484" height="32.472" viewBox="0 0 33.484 32.472">
  <path id="Subtraction_5" data-name="Subtraction 5" d="M9.07,32.472A16.9,16.9,0,0,1-2.768,27.717a15.892,15.892,0,0,1,0-22.961A16.9,16.9,0,0,1,9.07,0,16.9,16.9,0,0,1,20.909,4.755a15.891,15.891,0,0,1,0,22.961A16.9,16.9,0,0,1,9.07,32.472ZM11.5,14.32l0,0L16.72,22H18.7V11.328H16.736v7.583l-5.168-7.583H9.536V22H11.5V14.32ZM.448,11.328V22h7.28V20.192H2.464V17.408h3.6V15.616h-3.6V13.1h4.9V11.328Z" transform="translate(7.672)" fill="#7D94BB"/>
</svg>
